<svg width="185" height="38" viewBox="0 0 185 38" fill="none" xmlns="http://www.w3.org/2000/svg">
<path d="M45.16 22.17V18.84H50.05C50.69 18.84 51.27 18.71 51.79 18.45C52.31 18.19 52.72 17.82 53.02 17.34C53.32 16.84 53.47 16.24 53.47 15.54C53.47 14.86 53.32 14.27 53.02 13.77C52.72 13.27 52.31 12.89 51.79 12.63C51.27 12.37 50.69 12.24 50.05 12.24H45.16V8.91H50.47C51.81 8.91 53.01 9.18 54.07 9.72C55.15 10.26 56 11.03 56.62 12.03C57.24 13.01 57.55 14.18 57.55 15.54C57.55 16.9 57.24 18.08 56.62 19.08C56 20.06 55.15 20.82 54.07 21.36C53.01 21.9 51.81 22.17 50.47 22.17H45.16ZM42.16 30V8.91H46.24V30H42.16ZM60.2263 30V15.51H64.1563V30H60.2263ZM64.1563 21.99L62.6263 20.97C62.8063 19.19 63.3263 17.79 64.1863 16.77C65.0463 15.73 66.2863 15.21 67.9063 15.21C68.6063 15.21 69.2363 15.33 69.7963 15.57C70.3563 15.79 70.8663 16.16 71.3263 16.68L68.8663 19.5C68.6463 19.26 68.3763 19.08 68.0563 18.96C67.7563 18.84 67.4063 18.78 67.0063 18.78C66.1663 18.78 65.4763 19.05 64.9363 19.59C64.4163 20.11 64.1563 20.91 64.1563 21.99ZM79.1066 30.3C77.6466 30.3 76.3266 29.97 75.1466 29.31C73.9866 28.63 73.0566 27.72 72.3566 26.58C71.6766 25.42 71.3366 24.13 71.3366 22.71C71.3366 21.29 71.6766 20.02 72.3566 18.9C73.0366 17.76 73.9666 16.86 75.1466 16.2C76.3266 15.52 77.6366 15.18 79.0766 15.18C80.5566 15.18 81.8766 15.52 83.0366 16.2C84.2166 16.86 85.1466 17.76 85.8266 18.9C86.5066 20.02 86.8466 21.29 86.8466 22.71C86.8466 24.13 86.5066 25.42 85.8266 26.58C85.1466 27.72 84.2166 28.63 83.0366 29.31C81.8766 29.97 80.5666 30.3 79.1066 30.3ZM79.0766 26.64C79.8166 26.64 80.4666 26.48 81.0266 26.16C81.6066 25.82 82.0466 25.36 82.3466 24.78C82.6666 24.18 82.8266 23.5 82.8266 22.74C82.8266 21.98 82.6666 21.31 82.3466 20.73C82.0266 20.15 81.5866 19.7 81.0266 19.38C80.4666 19.04 79.8166 18.87 79.0766 18.87C78.3566 18.87 77.7166 19.04 77.1566 19.38C76.5966 19.7 76.1566 20.15 75.8366 20.73C75.5166 21.31 75.3566 21.98 75.3566 22.74C75.3566 23.5 75.5166 24.18 75.8366 24.78C76.1566 25.36 76.5966 25.82 77.1566 26.16C77.7166 26.48 78.3566 26.64 79.0766 26.64ZM89.3767 30V15.51H93.3067V30H89.3767ZM98.8267 30V21.45C98.8267 20.61 98.5567 19.96 98.0167 19.5C97.4967 19.02 96.8467 18.78 96.0667 18.78C95.5467 18.78 95.0767 18.89 94.6567 19.11C94.2367 19.31 93.9067 19.61 93.6667 20.01C93.4267 20.41 93.3067 20.89 93.3067 21.45L91.7767 20.7C91.7767 19.58 92.0167 18.61 92.4967 17.79C92.9967 16.97 93.6667 16.34 94.5067 15.9C95.3467 15.44 96.2967 15.21 97.3567 15.21C98.3567 15.21 99.2667 15.44 100.087 15.9C100.907 16.34 101.557 16.97 102.037 17.79C102.517 18.59 102.757 19.56 102.757 20.7V30H98.8267ZM108.277 30V21.45C108.277 20.61 108.007 19.96 107.467 19.5C106.947 19.02 106.297 18.78 105.517 18.78C105.017 18.78 104.547 18.89 104.107 19.11C103.687 19.31 103.357 19.61 103.117 20.01C102.877 20.41 102.757 20.89 102.757 21.45L100.507 20.91C100.587 19.75 100.897 18.75 101.437 17.91C101.977 17.05 102.687 16.39 103.567 15.93C104.447 15.45 105.427 15.21 106.507 15.21C107.587 15.21 108.557 15.44 109.417 15.9C110.277 16.34 110.957 16.98 111.457 17.82C111.957 18.66 112.207 19.66 112.207 20.82V30H108.277ZM123.432 30.3C122.392 30.3 121.452 30.09 120.612 29.67C119.772 29.23 119.102 28.64 118.602 27.9C118.102 27.16 117.832 26.31 117.792 25.35V20.22C117.832 19.26 118.102 18.41 118.602 17.67C119.122 16.91 119.792 16.31 120.612 15.87C121.452 15.43 122.392 15.21 123.432 15.21C124.772 15.21 125.972 15.54 127.032 16.2C128.092 16.86 128.922 17.76 129.522 18.9C130.142 20.04 130.452 21.33 130.452 22.77C130.452 24.19 130.142 25.47 129.522 26.61C128.922 27.75 128.092 28.65 127.032 29.31C125.972 29.97 124.772 30.3 123.432 30.3ZM115.392 36.06V15.51H119.322V19.32L118.662 22.83L119.292 26.34V36.06H115.392ZM122.742 26.67C123.462 26.67 124.102 26.51 124.662 26.19C125.222 25.85 125.652 25.39 125.952 24.81C126.272 24.21 126.432 23.52 126.432 22.74C126.432 21.98 126.272 21.31 125.952 20.73C125.652 20.13 125.222 19.67 124.662 19.35C124.102 19.01 123.462 18.84 122.742 18.84C122.042 18.84 121.412 19.01 120.852 19.35C120.292 19.67 119.852 20.13 119.532 20.73C119.232 21.31 119.082 21.98 119.082 22.74C119.082 23.52 119.232 24.21 119.532 24.81C119.852 25.39 120.282 25.85 120.822 26.19C121.382 26.51 122.022 26.67 122.742 26.67ZM134.808 30V9.48H138.738V30H134.808ZM131.418 18.96V15.51H142.128V18.96H131.418ZM147.758 22.17V18.84H152.648C153.288 18.84 153.868 18.71 154.388 18.45C154.908 18.19 155.318 17.82 155.618 17.34C155.918 16.84 156.068 16.24 156.068 15.54C156.068 14.86 155.918 14.27 155.618 13.77C155.318 13.27 154.908 12.89 154.388 12.63C153.868 12.37 153.288 12.24 152.648 12.24H147.758V8.91H153.068C154.408 8.91 155.608 9.18 156.668 9.72C157.748 10.26 158.598 11.03 159.218 12.03C159.838 13.01 160.148 14.18 160.148 15.54C160.148 16.9 159.838 18.08 159.218 19.08C158.598 20.06 157.748 20.82 156.668 21.36C155.608 21.9 154.408 22.17 153.068 22.17H147.758ZM144.758 30V8.91H148.838V30H144.758ZM162.824 30V15.51H166.784V30H162.824ZM164.804 13.17C164.164 13.17 163.634 12.96 163.214 12.54C162.794 12.1 162.584 11.56 162.584 10.92C162.584 10.3 162.794 9.77 163.214 9.33C163.634 8.89 164.164 8.67 164.804 8.67C165.464 8.67 165.994 8.89 166.394 9.33C166.814 9.77 167.024 10.3 167.024 10.92C167.024 11.56 166.814 12.1 166.394 12.54C165.994 12.96 165.464 13.17 164.804 13.17ZM179.325 30L175.515 24.12L174.705 23.52L169.065 15.51H173.715L177.225 20.82L177.975 21.39L183.945 30H179.325ZM168.765 30L174.675 21.72L176.925 24.39L173.205 30H168.765ZM178.125 23.49L175.815 20.85L179.265 15.51H183.675L178.125 23.49Z" fill="black"/>
<path fill-rule="evenodd" clip-rule="evenodd" d="M0 17.7778C0 11.2829 -2.05305e-07 8.03542 2.0177 6.0177C4.03542 4 7.28286 4 13.7778 4H17.2222C23.7171 4 26.9647 4 28.9822 6.0177C31 8.03542 31 11.2829 31 17.7778V21.2222C31 27.7171 31 30.9647 28.9822 32.9822C26.9647 35 23.7171 35 17.2222 35H13.7778C7.28286 35 4.03542 35 2.0177 32.9822C-2.05305e-07 30.9647 0 27.7171 0 21.2222V17.7778ZM25.8333 11.75C25.8333 13.1767 24.6767 14.3333 23.25 14.3333C21.8233 14.3333 20.6667 13.1767 20.6667 11.75C20.6667 10.3233 21.8233 9.16667 23.25 9.16667C24.6767 9.16667 25.8333 10.3233 25.8333 11.75ZM18.9444 21.2222C18.9444 23.1246 17.4024 24.6667 15.5 24.6667C13.5976 24.6667 12.0556 23.1246 12.0556 21.2222C12.0556 19.3199 13.5976 17.7778 15.5 17.7778C17.4024 17.7778 18.9444 19.3199 18.9444 21.2222ZM22.3889 21.2222C22.3889 25.0268 19.3046 28.1111 15.5 28.1111C11.6954 28.1111 8.61111 25.0268 8.61111 21.2222C8.61111 17.4177 11.6954 14.3333 15.5 14.3333C19.3046 14.3333 22.3889 17.4177 22.3889 21.2222Z" fill="#007AFF"/>
</svg>
